<svg aria-hidden="true" style="position: absolute; width: 0; height: 0; overflow: hidden;" version="1.1" xmlns="http://www.w3.org/2000/svg" xmlns:xlink="http://www.w3.org/1999/xlink">
<defs>
<symbol id="facebook" viewBox="0 0 32 32">
<title>facebook</title>
<path d="M22.667 4v2.667h-2.667c-0.736 0-1.404 0.3-1.885 0.781s-0.781 1.149-0.781 1.885v4c0 0.736 0.597 1.333 1.333 1.333h3.625l-0.667 2.667h-2.959c-0.736 0-1.333 0.597-1.333 1.333v9.333h-2.667v-9.333c0-0.736-0.597-1.333-1.333-1.333h-2.667v-2.667h2.667c0.736 0 1.333-0.597 1.333-1.333v-4c0-1.473 0.596-2.804 1.563-3.771s2.297-1.563 3.771-1.563zM24 1.333h-4c-2.209 0-4.211 0.897-5.657 2.343s-2.343 3.448-2.343 5.657v2.667h-2.667c-0.736 0-1.333 0.597-1.333 1.333v5.333c0 0.736 0.597 1.333 1.333 1.333h2.667v9.333c0 0.736 0.597 1.333 1.333 1.333h5.333c0.736 0 1.333-0.597 1.333-1.333v-9.333h2.667c0.621 0 1.144-0.425 1.293-1.009l1.333-5.333c0.179-0.715-0.256-1.439-0.971-1.617-0.111-0.028-0.223-0.041-0.323-0.040h-4v-2.667h4c0.736 0 1.333-0.597 1.333-1.333v-5.333c0-0.736-0.597-1.333-1.333-1.333z"></path>
</symbol>
<symbol id="instagram" viewBox="0 0 32 32">
<title>instagram</title>
<path d="M9.333 1.333c-2.209 0-4.211 0.897-5.657 2.343s-2.343 3.448-2.343 5.657v13.333c0 2.209 0.897 4.211 2.343 5.657s3.448 2.343 5.657 2.343h13.333c2.209 0 4.211-0.897 5.657-2.343s2.343-3.448 2.343-5.657v-13.333c0-2.209-0.897-4.211-2.343-5.657s-3.448-2.343-5.657-2.343zM9.333 4h13.333c1.473 0 2.804 0.596 3.771 1.563s1.563 2.297 1.563 3.771v13.333c0 1.473-0.596 2.804-1.563 3.771s-2.297 1.563-3.771 1.563h-13.333c-1.473 0-2.804-0.596-3.771-1.563s-1.563-2.297-1.563-3.771v-13.333c0-1.473 0.596-2.804 1.563-3.771s2.297-1.563 3.771-1.563zM22.652 14.964c-0.2-1.296-0.761-2.476-1.592-3.423-1.005-1.148-2.405-1.953-4.012-2.192-0.619-0.099-1.293-0.103-1.969-0.003-1.821 0.269-3.361 1.255-4.376 2.623s-1.511 3.129-1.24 4.949 1.255 3.361 2.623 4.376 3.129 1.511 4.949 1.24 3.361-1.255 4.376-2.623 1.511-3.129 1.24-4.949zM20.015 15.356c0.163 1.093-0.133 2.145-0.744 2.969s-1.533 1.412-2.625 1.573-2.145-0.133-2.969-0.744-1.412-1.533-1.573-2.625 0.133-2.145 0.744-2.969 1.533-1.412 2.625-1.573c0.417-0.061 0.82-0.056 1.16-0.003 0.987 0.147 1.821 0.627 2.424 1.315 0.5 0.571 0.84 1.284 0.96 2.057zM23.333 10c0.736 0 1.333-0.597 1.333-1.333s-0.597-1.333-1.333-1.333-1.333 0.597-1.333 1.333 0.597 1.333 1.333 1.333z"></path>
</symbol>
<symbol id="linkedin" viewBox="0 0 32 32">
<title>linkedin</title>
<path d="M21.333 9.333c-2.577 0-4.912 1.047-6.6 2.733s-2.733 4.023-2.733 6.6v9.333c0 0.736 0.597 1.333 1.333 1.333h5.333c0.736 0 1.333-0.597 1.333-1.333v-9.333c0-0.368 0.148-0.7 0.391-0.943s0.575-0.391 0.943-0.391 0.7 0.148 0.943 0.391 0.391 0.575 0.391 0.943v9.333c0 0.736 0.597 1.333 1.333 1.333h5.333c0.736 0 1.333-0.597 1.333-1.333v-9.333c0-2.577-1.047-4.912-2.733-6.6s-4.023-2.733-6.6-2.733zM21.333 12c1.841 0 3.507 0.745 4.715 1.952s1.952 2.873 1.952 4.715v8h-2.667v-8c0-1.104-0.449-2.107-1.172-2.828s-1.724-1.172-2.828-1.172-2.107 0.449-2.828 1.172-1.172 1.724-1.172 2.828v8h-2.667v-8c0-1.841 0.745-3.507 1.952-4.715s2.873-1.952 4.715-1.952zM2.667 10.667c-0.736 0-1.333 0.597-1.333 1.333v16c0 0.736 0.597 1.333 1.333 1.333h5.333c0.736 0 1.333-0.597 1.333-1.333v-16c0-0.736-0.597-1.333-1.333-1.333zM4 13.333h2.667v13.333h-2.667zM9.333 5.333c0-1.104-0.449-2.107-1.172-2.828s-1.724-1.172-2.828-1.172-2.107 0.449-2.828 1.172-1.172 1.724-1.172 2.828 0.449 2.107 1.172 2.828 1.724 1.172 2.828 1.172 2.107-0.449 2.828-1.172 1.172-1.724 1.172-2.828zM6.667 5.333c0 0.368-0.148 0.7-0.391 0.943s-0.575 0.391-0.943 0.391-0.7-0.148-0.943-0.391-0.391-0.575-0.391-0.943 0.148-0.7 0.391-0.943 0.575-0.391 0.943-0.391 0.7 0.148 0.943 0.391 0.391 0.575 0.391 0.943z"></path>
</symbol>
<symbol id="twitter" viewBox="0 0 32 32">
<title>twitter</title>
<path d="M27.777 7.016c-0.248 0.323-0.521 0.633-0.821 0.928-0.311 0.309-0.463 0.756-0.371 1.211 0.049 0.243 0.080 0.539 0.081 0.845 0 7.008-3.239 11.961-7.747 14.531-3.529 2.012-7.917 2.607-12.296 1.493 1.66-0.481 3.28-1.228 4.791-2.253 0.196-0.132 0.364-0.324 0.469-0.561 0.299-0.673-0.004-1.461-0.677-1.76-3.699-1.644-5.507-3.908-6.359-6.124-0.556-1.445-0.728-2.931-0.693-4.303 0.028-1.081 0.184-2.080 0.371-2.909 0.525 0.457 1.071 0.941 1.647 1.384 2.735 2.103 6.165 3.305 9.86 3.209 0.724-0.020 1.301-0.609 1.301-1.333v-1.348c-0.003-0.239 0.012-0.476 0.045-0.711 0.151-1.075 0.672-2.092 1.549-2.855 0.967-0.841 2.181-1.211 3.368-1.128s2.337 0.617 3.179 1.584c0.336 0.381 0.865 0.555 1.377 0.405 0.308-0.089 0.617-0.191 0.927-0.304zM29.899 2.911c-0.987 0.696-2.031 1.235-3.049 1.607-1.241-1.115-2.788-1.736-4.368-1.847-1.864-0.129-3.781 0.452-5.303 1.776-1.381 1.201-2.203 2.811-2.44 4.496-0.049 0.353-0.073 0.709-0.072 1.067-2.563-0.189-4.924-1.133-6.867-2.627-1.033-0.795-1.949-1.745-2.712-2.821-0.427-0.6-1.259-0.743-1.859-0.316-0.205 0.145-0.356 0.337-0.447 0.545 0 0-0.176 0.399-0.38 1.013-0.149 0.449-0.321 1.033-0.476 1.72-0.217 0.963-0.403 2.136-0.435 3.428-0.041 1.636 0.16 3.483 0.869 5.328 0.911 2.367 2.621 4.637 5.529 6.431-2.092 0.968-4.327 1.385-6.497 1.289-0.736-0.032-1.359 0.537-1.391 1.273-0.023 0.519 0.253 0.981 0.684 1.224 6.54 3.633 13.901 3.571 19.555 0.348 5.387-3.068 9.092-8.933 9.092-16.845-0.001-0.223-0.011-0.44-0.031-0.652 1.341-1.487 2.235-3.239 2.661-5.041 0.169-0.716-0.275-1.435-0.991-1.604-0.387-0.092-0.773-0.004-1.076 0.208z"></path>
</symbol>
</defs>
</svg>
